<svg id="Capa_1" enable-background="new 0 0 497 497" height="512" viewBox="0 0 497 497" width="512" xmlns="http://www.w3.org/2000/svg"><g><path d="m25 367.598h447c13.807 0 25-11.193 25-25v-248.093c0-13.807-11.193-25-25-25h-307.75l-14.296-42.815c-3.407-10.202-12.957-17.082-23.713-17.082h-101.241c-13.807 0-25 11.193-25 25v307.99c0 13.807 11.193 25 25 25z" fill="#fd8087"/><path d="m317.046 86.587c-2.556 7.654-9.72 12.815-17.789 12.815h-299.257v243.196c0 13.807 11.193 25 25 25h447c13.807 0 25-11.193 25-25v-248.093c0-13.807-11.193-25-25-25h-131.241c-10.756 0-20.306 6.88-23.713 17.082z" fill="#fe646f"/><path d="m462 427.495h-437c-13.807 0-25-11.193-25-25v-248.093c0-13.807 11.193-25 25-25h307.75l14.296-42.815c3.407-10.202 12.957-17.082 23.713-17.082h91.241c13.807 0 25 11.193 25 25v307.99c0 13.807-11.193 25-25 25z" fill="#8ac9fe"/><path d="m497 402.495c0 13.807-11.193 25-25 25h-30-417c-13.807 0-25-11.193-25-25v-243.196h442c13.807 0 25-11.193 25-25v-39.794c0-13.807-11.193-25-25-25h30c13.807 0 25 11.193 25 25z" fill="#60b7ff"/><path d="m25 487.392h437c13.807 0 25-11.193 25-25v-248.093c0-13.807-11.193-25-25-25h-297.75l-14.296-42.815c-3.407-10.202-12.957-17.082-23.713-17.082h-101.241c-13.807 0-25 11.193-25 25v307.99c0 13.807 11.193 25 25 25z" fill="#fed402"/><g><path d="m472 189.299h-30c13.807 0 25 11.193 25 25v248.093c0 13.807-11.193 25-25 25h30c13.807 0 25-11.193 25-25v-248.093c0-13.807-11.193-25-25-25z" fill="#fac600"/></g><path d="m166.335 367.598h-108.65c-5.523 0-10 4.477-10 10v52.552c0 5.523 4.477 10 10 10h108.65c5.523 0 10-4.477 10-10v-52.552c0-5.523-4.477-10-10-10z" fill="#efedef"/><g><path d="m143.662 411.374h-63.032c-4.142 0-7.5-3.358-7.5-7.5s3.358-7.5 7.5-7.5h63.031c4.142 0 7.5 3.358 7.5 7.5.001 4.142-3.357 7.5-7.499 7.5z" fill="#b5adb6"/></g></g></svg>